Coordinates
version=1
nRows=36
nColumns=8
inDegrees=yes

# SIMM Motion File Header:
name Coordinates
datacolumns 8
datarows 36
otherdata 1
range 0.83000000 0.86500000

Units are S.I. units (second, meters, Newtons, ...)
Angles are in degrees.

endheader
time	pelvis_tilt	pelvis_tx	pelvis_ty	hip_flexion_r	knee_angle_r	knee_angle_pat_r	ankle_angle_r
      0.83000000	      1.54999773	      0.03768869	      1.06430996	     17.99233897	    -25.22302822	    -25.22302399	      9.96351784
      0.83100000	      1.55304639	      0.03767500	      1.06451506	     17.90263618	    -25.18294734	    -25.18294311	      9.99888868
      0.83200000	      1.55776991	      0.03766016	      1.06472271	     17.81085884	    -25.14204723	    -25.14204300	     10.03465284
      0.83300000	      1.56461923	      0.03764404	      1.06493348	     17.71646716	    -25.10020730	    -25.10020307	     10.07108853
      0.83400000	      1.57329461	      0.03762696	      1.06514684	     17.61984014	    -25.05761423	    -25.05761000	     10.10798507
      0.83500000	      1.58464733	      0.03760860	      1.06536395	     17.51994554	    -25.01396782	    -25.01396359	     10.14538377
      0.83600000	      1.60083644	      0.03758836	      1.06558758	     17.41417801	    -24.96857137	    -24.96856714	     10.18287440
      0.83700000	      1.61781300	      0.03756781	      1.06581228	     17.30745425	    -24.92288998	    -24.92288574	     10.22037999
      0.83800000	      1.64148797	      0.03754507	      1.06604580	     17.19262651	    -24.87491880	    -24.87491456	     10.25668872
      0.83900000	      1.66706329	      0.03752174	      1.06628180	     17.07550275	    -24.82631001	    -24.82630577	     10.29251227
      0.84000000	      1.69865124	      0.03749665	      1.06652559	     16.95112487	    -24.77572393	    -24.77571969	     10.32631464
      0.84100000	      1.73599309	      0.03746997	      1.06677677	     16.81981473	    -24.72328641	    -24.72328217	     10.35778357
      0.84200000	      1.77976937	      0.03744143	      1.06703620	     16.68073754	    -24.66872163	    -24.66871739	     10.38600298
      0.84300000	      1.82536394	      0.03741228	      1.06729798	     16.53945865	    -24.61352092	    -24.61351669	     10.41302572
      0.84400000	      1.87625816	      0.03738132	      1.06756661	     16.39175622	    -24.55643348	    -24.55642924	     10.43629647
      0.84500000	      1.92909258	      0.03734933	      1.06783780	     16.24167070	    -24.49849914	    -24.49849490	     10.45741154
      0.84600000	      1.98401797	      0.03731626	      1.06811175	     16.08901690	    -24.43965207	    -24.43964784	     10.47620340
      0.84700000	      2.03956352	      0.03728207	      1.06838667	     15.93551579	    -24.38014463	    -24.38014040	     10.49298815
      0.84800000	      2.09532370	      0.03724718	      1.06866198	     15.78168461	    -24.32024448	    -24.32024025	     10.50855263
      0.84900000	      2.14950794	      0.03721108	      1.06893558	     15.62954194	    -24.25995141	    -24.25994717	     10.52258593
      0.85000000	      2.20253397	      0.03717462	      1.06920784	     15.47869442	    -24.19962271	    -24.19961848	     10.53642177
      0.85100000	      2.25140579	      0.03713727	      1.06947520	     15.33251882	    -24.13931437	    -24.13931013	     10.55043554
      0.85200000	      2.29784466	      0.03709955	      1.06973966	     15.18907994	    -24.07904729	    -24.07904305	     10.56499376
      0.85300000	      2.34077310	      0.03706136	      1.06999992	     15.04958021	    -24.01881910	    -24.01881487	     10.58049617
      0.85400000	      2.37923849	      0.03702264	      1.07025480	     14.91504202	    -23.95850876	    -23.95850453	     10.59722879
      0.85500000	      2.41371438	      0.03698349	      1.07050485	     14.78487866	    -23.89794221	    -23.89793797	     10.61484027
      0.85600000	      2.44603614	      0.03694410	      1.07075231	     14.65707478	    -23.83722909	    -23.83722485	     10.63291637
      0.85700000	      2.47439753	      0.03690425	      1.07099495	     14.53352204	    -23.77597330	    -23.77596907	     10.65129038
      0.85800000	      2.50046706	      0.03686414	      1.07123480	     14.41241864	    -23.71436848	    -23.71436424	     10.66973409
      0.85900000	      2.52225824	      0.03682347	      1.07146941	     14.29577718	    -23.65175374	    -23.65174951	     10.68725614
      0.86000000	      2.54277887	      0.03678259	      1.07170246	     14.18042391	    -23.58871975	    -23.58871551	     10.70417810
      0.86100000	      2.56015563	      0.03674117	      1.07193160	     14.06820542	    -23.52448194	    -23.52447770	     10.71924814
      0.86200000	      2.57501515	      0.03669922	      1.07215755	     13.95841882	    -23.45903947	    -23.45903524	     10.73218094
      0.86300000	      2.58893048	      0.03665706	      1.07238229	     13.84953793	    -23.39312651	    -23.39312227	     10.74418732
      0.86400000	      2.60038685	      0.03661428	      1.07260381	     13.74300725	    -23.32596443	    -23.32596020	     10.75358164
      0.86500000	      2.61038376	      0.03657107	      1.07282332	     13.63788538	    -23.25811768	    -23.25811345	     10.76143800
